<?xml version="1.0" encoding="UTF-8" standalone="no"?>
<!DOCTYPE svg PUBLIC "-//W3C//DTD SVG 1.1//EN" "http://www.w3.org/Graphics/SVG/1.1/DTD/svg11.dtd">
<svg width="150%" height="150%" viewBox="0 0 384 384" version="1.1" xmlns="http://www.w3.org/2000/svg" xmlns:xlink="http://www.w3.org/1999/xlink" xml:space="preserve" xmlns:serif="http://www.serif.com/" style="fill-rule:evenodd;clip-rule:evenodd;stroke-linejoin:round;stroke-miterlimit:2;">
    <g transform="matrix(2,0,0,2,0,0)">
        <g transform="matrix(1,0,0,1,29.9653,64.5684)">
            <g transform="matrix(1.09771,0,0,1.12002,-689.287,-241.264)">
                <g opacity="0.85">
                    <g transform="matrix(1,0,0,1,55.4717,0)">
                        <path d="M586.868,247.358L626.774,264.906L586.868,282.453L546.962,264.906L586.868,247.358Z" style="fill:url(#_Radial1);"/>
                    </g>
                    <g transform="matrix(1,0,0,1,99.9057,19.8113)">
                        <path d="M586.868,247.358L626.774,264.906L586.868,282.453L546.962,264.906L586.868,247.358Z" style="fill:url(#_Radial2);"/>
                    </g>
                    <g transform="matrix(1,0,0,1,144.34,0)">
                        <path d="M586.868,247.358L626.774,264.906L586.868,282.453L546.962,264.906L586.868,247.358Z" style="fill:url(#_Radial3);"/>
                    </g>
                    <g transform="matrix(1,0,0,1,99.9057,-19.8113)">
                        <path d="M586.868,247.358L626.774,264.906L586.868,282.453L546.962,264.906L586.868,247.358Z" style="fill:url(#_Radial4);"/>
                    </g>
                </g>
            </g>
            <g transform="matrix(2.72198,0,0,2.72198,-1771.33,-801.543)">
                <g opacity="0.3">
                    <g transform="matrix(0.330007,0,0,0.330007,447.839,227.083)">
                        <g transform="matrix(1,0,0,1,55.4717,0)">
                            <path d="M586.868,247.358L626.774,264.906L586.868,282.453L546.962,264.906L586.868,247.358Z" style="fill:rgb(7,0,0);"/>
                        </g>
                        <g transform="matrix(1,0,0,1,99.9057,19.8113)">
                            <path d="M586.868,247.358L626.774,264.906L586.868,282.453L546.962,264.906L586.868,247.358Z" style="fill:rgb(7,0,0);"/>
                        </g>
                        <g transform="matrix(1,0,0,1,144.34,0)">
                            <path d="M586.868,247.358L626.774,264.906L586.868,282.453L546.962,264.906L586.868,247.358Z" style="fill:rgb(7,0,0);"/>
                        </g>
                        <g transform="matrix(1,0,0,1,99.9057,-19.8113)">
                            <path d="M586.868,247.358L626.774,264.906L586.868,282.453L546.962,264.906L586.868,247.358Z" style="fill:rgb(7,0,0);"/>
                        </g>
                    </g>
                </g>
            </g>
            <g transform="matrix(0.898272,0,0,0.898272,-552.32,-187.428)">
                <g>
                    <g transform="matrix(1,0,0,1,55.4717,0)">
                        <path d="M586.868,247.358L626.774,264.906L586.868,282.453L546.962,264.906L586.868,247.358Z" style="fill:white;"/>
                    </g>
                    <g transform="matrix(1,0,0,1,99.9057,19.8113)">
                        <path d="M586.868,247.358L626.774,264.906L586.868,282.453L546.962,264.906L586.868,247.358Z" style="fill:white;"/>
                    </g>
                    <g transform="matrix(1,0,0,1,144.34,0)">
                        <path d="M586.868,247.358L626.774,264.906L586.868,282.453L546.962,264.906L586.868,247.358Z" style="fill:white;"/>
                    </g>
                    <g transform="matrix(1,0,0,1,99.9057,-19.8113)">
                        <path d="M586.868,247.358L626.774,264.906L586.868,282.453L546.962,264.906L586.868,247.358Z" style="fill:white;"/>
                    </g>
                </g>
            </g>
            <g transform="matrix(0.898272,0,0,0.898272,-552.32,-190.925)">
                <g opacity="0.85">
                    <g transform="matrix(1,0,0,1,55.4717,0)">
                        <path d="M586.868,247.358L626.774,264.906L586.868,282.453L546.962,264.906L586.868,247.358Z" style="fill:url(#_Radial5);"/>
                    </g>
                    <g transform="matrix(1,0,0,1,99.9057,19.8113)">
                        <path d="M586.868,247.358L626.774,264.906L586.868,282.453L546.962,264.906L586.868,247.358Z" style="fill:url(#_Radial6);"/>
                    </g>
                    <g transform="matrix(1,0,0,1,144.34,0)">
                        <path d="M586.868,247.358L626.774,264.906L586.868,282.453L546.962,264.906L586.868,247.358Z" style="fill:url(#_Radial7);"/>
                    </g>
                    <g transform="matrix(1,0,0,1,99.9057,-19.8113)">
                        <path d="M586.868,247.358L626.774,264.906L586.868,282.453L546.962,264.906L586.868,247.358Z" style="fill:url(#_Radial8);"/>
                    </g>
                </g>
            </g>
            <g transform="matrix(0.898272,0,0,0.898272,-552.32,-194.428)">
                <g>
                    <g transform="matrix(1,0,0,1,55.4717,0)">
                        <path d="M586.868,247.358L626.774,264.906L586.868,282.453L546.962,264.906L586.868,247.358Z" style="fill:white;"/>
                    </g>
                    <g transform="matrix(1,0,0,1,99.9057,19.8113)">
                        <path d="M586.868,247.358L626.774,264.906L586.868,282.453L546.962,264.906L586.868,247.358Z" style="fill:white;"/>
                    </g>
                    <g transform="matrix(1,0,0,1,144.34,0)">
                        <path d="M586.868,247.358L626.774,264.906L586.868,282.453L546.962,264.906L586.868,247.358Z" style="fill:white;"/>
                    </g>
                    <g transform="matrix(1,0,0,1,99.9057,-19.8113)">
                        <path d="M586.868,247.358L626.774,264.906L586.868,282.453L546.962,264.906L586.868,247.358Z" style="fill:white;"/>
                    </g>
                </g>
            </g>
            <g transform="matrix(2.72198,0,0,2.72198,-1771.33,-815.543)">
                <g opacity="0.3">
                    <g transform="matrix(0.330007,0,0,0.330007,447.839,227.083)">
                        <g transform="matrix(1,0,0,1,55.4717,0)">
                            <path d="M586.868,247.358L626.774,264.906L586.868,282.453L546.962,264.906L586.868,247.358Z" style="fill:rgb(7,0,0);"/>
                        </g>
                        <g transform="matrix(1,0,0,1,99.9057,19.8113)">
                            <path d="M586.868,247.358L626.774,264.906L586.868,282.453L546.962,264.906L586.868,247.358Z" style="fill:rgb(7,0,0);"/>
                        </g>
                        <g transform="matrix(1,0,0,1,144.34,0)">
                            <path d="M586.868,247.358L626.774,264.906L586.868,282.453L546.962,264.906L586.868,247.358Z" style="fill:rgb(7,0,0);"/>
                        </g>
                        <g transform="matrix(1,0,0,1,99.9057,-19.8113)">
                            <path d="M586.868,247.358L626.774,264.906L586.868,282.453L546.962,264.906L586.868,247.358Z" style="fill:rgb(7,0,0);"/>
                        </g>
                    </g>
                </g>
            </g>
            <g transform="matrix(2.72198,0,0,2.72198,-1771.33,-819.543)">
                <g opacity="0.3">
                    <g transform="matrix(0.330007,0,0,0.330007,447.839,227.083)">
                        <g transform="matrix(1,0,0,1,55.4717,0)">
                            <path d="M586.868,247.358L626.774,264.906L586.868,282.453L546.962,264.906L586.868,247.358Z" style="fill:rgb(7,0,0);"/>
                        </g>
                        <g transform="matrix(1,0,0,1,99.9057,19.8113)">
                            <path d="M586.868,247.358L626.774,264.906L586.868,282.453L546.962,264.906L586.868,247.358Z" style="fill:rgb(7,0,0);"/>
                        </g>
                        <g transform="matrix(1,0,0,1,144.34,0)">
                            <path d="M586.868,247.358L626.774,264.906L586.868,282.453L546.962,264.906L586.868,247.358Z" style="fill:rgb(7,0,0);"/>
                        </g>
                        <g transform="matrix(1,0,0,1,99.9057,-19.8113)">
                            <path d="M586.868,247.358L626.774,264.906L586.868,282.453L546.962,264.906L586.868,247.358Z" style="fill:rgb(7,0,0);"/>
                        </g>
                    </g>
                </g>
            </g>
            <g transform="matrix(0.898272,0,0,0.898272,-552.32,-205.428)">
                <g>
                    <g transform="matrix(1,0,0,1,55.4717,0)">
                        <path d="M586.868,247.358L626.774,264.906L586.868,282.453L546.962,264.906L586.868,247.358Z" style="fill:white;"/>
                    </g>
                    <g transform="matrix(1,0,0,1,99.9057,19.8113)">
                        <path d="M586.868,247.358L626.774,264.906L586.868,282.453L546.962,264.906L586.868,247.358Z" style="fill:white;"/>
                    </g>
                    <g transform="matrix(1,0,0,1,144.34,0)">
                        <path d="M586.868,247.358L626.774,264.906L586.868,282.453L546.962,264.906L586.868,247.358Z" style="fill:white;"/>
                    </g>
                    <g transform="matrix(1,0,0,1,99.9057,-19.8113)">
                        <path d="M586.868,247.358L626.774,264.906L586.868,282.453L546.962,264.906L586.868,247.358Z" style="fill:white;"/>
                    </g>
                </g>
            </g>
            <g transform="matrix(0.898272,0,0,0.898272,-552.32,-208.925)">
                <g opacity="0.85">
                    <g transform="matrix(1,0,0,1,55.4717,0)">
                        <path d="M586.868,247.358L626.774,264.906L586.868,282.453L546.962,264.906L586.868,247.358Z" style="fill:url(#_Radial9);"/>
                    </g>
                    <g transform="matrix(1,0,0,1,99.9057,19.8113)">
                        <path d="M586.868,247.358L626.774,264.906L586.868,282.453L546.962,264.906L586.868,247.358Z" style="fill:url(#_Radial10);"/>
                    </g>
                    <g transform="matrix(1,0,0,1,144.34,0)">
                        <path d="M586.868,247.358L626.774,264.906L586.868,282.453L546.962,264.906L586.868,247.358Z" style="fill:url(#_Radial11);"/>
                    </g>
                    <g transform="matrix(1,0,0,1,99.9057,-19.8113)">
                        <path d="M586.868,247.358L626.774,264.906L586.868,282.453L546.962,264.906L586.868,247.358Z" style="fill:url(#_Radial12);"/>
                    </g>
                </g>
            </g>
            <g transform="matrix(0.898272,0,0,0.898272,-552.32,-212.428)">
                <g>
                    <g transform="matrix(1,0,0,1,55.4717,0)">
                        <path d="M586.868,247.358L626.774,264.906L586.868,282.453L546.962,264.906L586.868,247.358Z" style="fill:white;"/>
                    </g>
                    <g transform="matrix(1,0,0,1,99.9057,19.8113)">
                        <path d="M586.868,247.358L626.774,264.906L586.868,282.453L546.962,264.906L586.868,247.358Z" style="fill:white;"/>
                    </g>
                    <g transform="matrix(1,0,0,1,144.34,0)">
                        <path d="M586.868,247.358L626.774,264.906L586.868,282.453L546.962,264.906L586.868,247.358Z" style="fill:white;"/>
                    </g>
                    <g transform="matrix(1,0,0,1,99.9057,-19.8113)">
                        <path d="M586.868,247.358L626.774,264.906L586.868,282.453L546.962,264.906L586.868,247.358Z" style="fill:white;"/>
                    </g>
                </g>
            </g>
            <g transform="matrix(2.72198,0,0,2.72198,-1771.33,-833.543)">
                <g opacity="0.3">
                    <g transform="matrix(0.330007,0,0,0.330007,447.839,227.083)">
                        <g transform="matrix(1,0,0,1,55.4717,0)">
                            <path d="M586.868,247.358L626.774,264.906L586.868,282.453L546.962,264.906L586.868,247.358Z" style="fill:rgb(7,0,0);"/>
                        </g>
                        <g transform="matrix(1,0,0,1,99.9057,19.8113)">
                            <path d="M586.868,247.358L626.774,264.906L586.868,282.453L546.962,264.906L586.868,247.358Z" style="fill:rgb(7,0,0);"/>
                        </g>
                        <g transform="matrix(1,0,0,1,144.34,0)">
                            <path d="M586.868,247.358L626.774,264.906L586.868,282.453L546.962,264.906L586.868,247.358Z" style="fill:rgb(7,0,0);"/>
                        </g>
                        <g transform="matrix(1,0,0,1,99.9057,-19.8113)">
                            <path d="M586.868,247.358L626.774,264.906L586.868,282.453L546.962,264.906L586.868,247.358Z" style="fill:rgb(7,0,0);"/>
                        </g>
                    </g>
                </g>
            </g>
            <g transform="matrix(1.12002,0,0,1.12002,-703.84,-285.794)">
                <g opacity="0.85">
                    <g transform="matrix(1,0,0,1,55.4717,0)">
                        <path d="M586.868,247.358L626.774,264.906L586.868,282.453L546.962,264.906L586.868,247.358Z" style="fill:url(#_Radial13);"/>
                    </g>
                    <g transform="matrix(1,0,0,1,99.9057,19.8113)">
                        <path d="M586.868,247.358L626.774,264.906L586.868,282.453L546.962,264.906L586.868,247.358Z" style="fill:url(#_Radial14);"/>
                    </g>
                    <g transform="matrix(1,0,0,1,144.34,0)">
                        <path d="M586.868,247.358L626.774,264.906L586.868,282.453L546.962,264.906L586.868,247.358Z" style="fill:url(#_Radial15);"/>
                    </g>
                    <g transform="matrix(1,0,0,1,99.9057,-19.8113)">
                        <path d="M586.868,247.358L626.774,264.906L586.868,282.453L546.962,264.906L586.868,247.358Z" style="fill:url(#_Radial16);"/>
                    </g>
                </g>
            </g>
            <g transform="matrix(0.158554,0.0685719,-3.18469e-34,0.171519,-21.5412,28.5812)">
                <g id="X" transform="matrix(5.66741,-2.26579,0,5.23904,135.26,-182.798)">
                    <g transform="matrix(1.26276,-0.576045,0,1,-26.1506,-68.8778)">
                        <path d="M14.193,123.136L13.138,123.136C10.589,124.839 11.913,123.767 9.735,125.596L10.834,125.647L14.193,123.136Z" style="fill:rgb(218,218,218);"/>
                    </g>
                    <g transform="matrix(1.26276,-0.576045,0,1,-26.1506,-68.8778)">
                        <path d="M14.193,123.136L13.138,123.136C10.589,124.839 8.217,126.603 6.039,128.432L7.088,128.41L14.193,123.136Z" style="fill:rgb(218,218,218);"/>
                    </g>
                    <g transform="matrix(0.926362,-0.422588,5.56713e-17,0.809765,-23.0389,-38.9182)">
                        <path d="M6.922,104.102L5.337,104.102L14.876,130.055L16.369,129.994L6.922,104.102Z" style="fill:rgb(218,218,218);"/>
                    </g>
                </g>
                <path d="M19.221,153.008L46.066,116.836L22.393,83.6L33.33,83.6L45.924,101.402C48.544,105.095 50.406,107.935 51.511,109.924C53.057,107.399 54.888,104.763 57.003,102.017L70.969,83.6L80.959,83.6L56.577,116.315L82.853,153.008L71.49,153.008L54.02,128.246C53.041,126.826 52.031,125.279 50.99,123.607C49.443,126.132 48.338,127.868 47.676,128.815L30.253,153.008L19.221,153.008Z" style="fill:rgb(182,182,182);fill-rule:nonzero;"/>
                <g transform="matrix(5.66741,-2.26579,0,5.23904,77.9623,-182.366)">
                    <g transform="matrix(0.262734,0.113628,-0.523602,0.238857,76.3002,12.3356)">
                        <rect x="24.026" y="150.918" width="9.315" height="2.591" style="fill:white;"/>
                    </g>
                    <g transform="matrix(0.771967,-0.352156,-7.10648e-18,0.971895,-16.773,-57.025)">
                        <rect x="26.657" y="123.938" width="1.767" height="11.954" style="fill:rgb(218,218,218);"/>
                    </g>
                </g>
                <path d="M90.665,153.008L90.665,83.6L104.49,83.6L120.919,132.744C122.434,137.321 123.539,140.746 124.233,143.018C125.022,140.493 126.253,136.784 127.926,131.892L144.544,83.6L156.901,83.6L156.901,153.008L148.048,153.008L148.048,94.915L127.878,153.008L119.593,153.008L99.519,93.921L99.519,153.008L90.665,153.008Z" style="fill:rgb(182,182,182);fill-rule:nonzero;"/>
                <path d="M171.341,153.008L171.341,83.6L180.526,83.6L180.526,144.817L214.71,144.817L214.71,153.008L171.341,153.008Z" style="fill:rgb(182,182,182);fill-rule:nonzero;"/>
                <g id="L" transform="matrix(5.66741,-2.26579,0,5.23904,135.26,-182.798)">
                    <g transform="matrix(0.771967,-0.352156,0,0.978784,-12.5963,-57.6139)">
                        <rect x="26.657" y="123.938" width="1.767" height="11.954" style="fill:rgb(218,218,218);"/>
                    </g>
                    <g transform="matrix(0.17422,0.075347,-0.523602,0.238857,82.5584,15.125)">
                        <rect x="24.026" y="150.918" width="9.315" height="2.591" style="fill:white;"/>
                    </g>
                    <g transform="matrix(0.143816,-0.0656058,9.78355e-17,0.603784,10.5634,-20.9506)">
                        <rect x="24.026" y="150.918" width="9.315" height="2.591" style="fill:white;"/>
                    </g>
                    <g transform="matrix(0.586358,0.253589,-0.763954,0.3485,104.207,12.3177)">
                        <rect x="18.795" y="138.595" width="10.252" height="1.753" style="fill:white;"/>
                    </g>
                </g>
                <g transform="matrix(1.1773,-3.33067e-16,-2.96747,2.43775,449.625,-290.604)">
                    <rect x="24.026" y="150.918" width="9.315" height="2.591" style="fill:white;"/>
                </g>
                <g transform="matrix(1.0696,-2.22045e-16,-2.96747,2.43775,500.811,-290.625)">
                    <rect x="24.026" y="150.918" width="9.315" height="2.591" style="fill:white;"/>
                </g>
                <g transform="matrix(4.28479,-3.51992,0,5.23904,17.8431,-435.035)">
                    <path d="M30.392,124.412L30.359,121.622L25.606,129.492L27.469,129.492L30.392,124.412Z" style="fill:rgb(218,218,218);"/>
                </g>
                <g transform="matrix(5.66741,-2.26579,0,5.23904,135.26,-182.798)">
                    <g transform="matrix(0.771967,-0.352156,-2.53025e-19,1.1076,-16.7638,-75.3833)">
                        <rect x="26.657" y="123.938" width="1.767" height="11.954" style="fill:white;"/>
                    </g>
                    <g transform="matrix(0.234731,0.101517,-0.523602,0.238857,76.3734,12.4478)">
                        <rect x="24.026" y="150.918" width="9.315" height="2.591" style="fill:white;"/>
                    </g>
                </g>
                <g transform="matrix(-0.501643,1.0671,-3.33094,-7.24171,604.501,1094.63)">
                    <path d="M42.864,137.726L32.646,137.987L24.554,144.102L35.233,144.803L42.864,137.726Z" style="fill:rgb(218,218,218);"/>
                </g>
                <g transform="matrix(-0.501643,1.0671,-3.33094,-7.24171,604.501,1094.63)">
                    <path d="M42.864,137.726L32.646,137.987L24.554,144.102L35.233,144.803L42.864,137.726Z" style="fill:rgb(218,218,218);"/>
                </g>
            </g>
        </g>
    </g>
    <defs>
        <radialGradient id="_Radial1" cx="0" cy="0" r="1" gradientUnits="userSpaceOnUse" gradientTransform="matrix(168.679,0,0,74.717,602.434,264.906)"><stop offset="0" style="stop-color:rgb(0,115,212);stop-opacity:1"/><stop offset="0.18" style="stop-color:rgb(6,81,231);stop-opacity:1"/><stop offset="0.39" style="stop-color:rgb(11,50,248);stop-opacity:1"/><stop offset="1" style="stop-color:rgb(13,37,255);stop-opacity:1"/></radialGradient>
        <radialGradient id="_Radial2" cx="0" cy="0" r="1" gradientUnits="userSpaceOnUse" gradientTransform="matrix(168.679,0,0,74.717,602.434,264.906)"><stop offset="0" style="stop-color:rgb(0,115,212);stop-opacity:1"/><stop offset="0.18" style="stop-color:rgb(6,81,231);stop-opacity:1"/><stop offset="0.39" style="stop-color:rgb(11,50,248);stop-opacity:1"/><stop offset="1" style="stop-color:rgb(13,37,255);stop-opacity:1"/></radialGradient>
        <radialGradient id="_Radial3" cx="0" cy="0" r="1" gradientUnits="userSpaceOnUse" gradientTransform="matrix(168.679,0,0,74.717,602.434,264.906)"><stop offset="0" style="stop-color:rgb(0,115,212);stop-opacity:1"/><stop offset="0.18" style="stop-color:rgb(6,81,231);stop-opacity:1"/><stop offset="0.39" style="stop-color:rgb(11,50,248);stop-opacity:1"/><stop offset="1" style="stop-color:rgb(13,37,255);stop-opacity:1"/></radialGradient>
        <radialGradient id="_Radial4" cx="0" cy="0" r="1" gradientUnits="userSpaceOnUse" gradientTransform="matrix(168.679,0,0,74.717,602.434,264.906)"><stop offset="0" style="stop-color:rgb(0,115,212);stop-opacity:1"/><stop offset="0.18" style="stop-color:rgb(6,81,231);stop-opacity:1"/><stop offset="0.39" style="stop-color:rgb(11,50,248);stop-opacity:1"/><stop offset="1" style="stop-color:rgb(13,37,255);stop-opacity:1"/></radialGradient>
        <radialGradient id="_Radial5" cx="0" cy="0" r="1" gradientUnits="userSpaceOnUse" gradientTransform="matrix(168.679,0,0,74.717,602.434,264.906)"><stop offset="0" style="stop-color:rgb(0,115,212);stop-opacity:1"/><stop offset="0.18" style="stop-color:rgb(6,81,231);stop-opacity:1"/><stop offset="0.39" style="stop-color:rgb(11,50,248);stop-opacity:1"/><stop offset="1" style="stop-color:rgb(13,37,255);stop-opacity:1"/></radialGradient>
        <radialGradient id="_Radial6" cx="0" cy="0" r="1" gradientUnits="userSpaceOnUse" gradientTransform="matrix(168.679,0,0,74.717,602.434,264.906)"><stop offset="0" style="stop-color:rgb(0,115,212);stop-opacity:1"/><stop offset="0.18" style="stop-color:rgb(6,81,231);stop-opacity:1"/><stop offset="0.39" style="stop-color:rgb(11,50,248);stop-opacity:1"/><stop offset="1" style="stop-color:rgb(13,37,255);stop-opacity:1"/></radialGradient>
        <radialGradient id="_Radial7" cx="0" cy="0" r="1" gradientUnits="userSpaceOnUse" gradientTransform="matrix(168.679,0,0,74.717,602.434,264.906)"><stop offset="0" style="stop-color:rgb(0,115,212);stop-opacity:1"/><stop offset="0.18" style="stop-color:rgb(6,81,231);stop-opacity:1"/><stop offset="0.39" style="stop-color:rgb(11,50,248);stop-opacity:1"/><stop offset="1" style="stop-color:rgb(13,37,255);stop-opacity:1"/></radialGradient>
        <radialGradient id="_Radial8" cx="0" cy="0" r="1" gradientUnits="userSpaceOnUse" gradientTransform="matrix(168.679,0,0,74.717,602.434,264.906)"><stop offset="0" style="stop-color:rgb(0,115,212);stop-opacity:1"/><stop offset="0.18" style="stop-color:rgb(6,81,231);stop-opacity:1"/><stop offset="0.39" style="stop-color:rgb(11,50,248);stop-opacity:1"/><stop offset="1" style="stop-color:rgb(13,37,255);stop-opacity:1"/></radialGradient>
        <radialGradient id="_Radial9" cx="0" cy="0" r="1" gradientUnits="userSpaceOnUse" gradientTransform="matrix(168.679,0,0,74.717,602.434,264.906)"><stop offset="0" style="stop-color:rgb(0,115,212);stop-opacity:1"/><stop offset="0.18" style="stop-color:rgb(6,81,231);stop-opacity:1"/><stop offset="0.39" style="stop-color:rgb(11,50,248);stop-opacity:1"/><stop offset="1" style="stop-color:rgb(13,37,255);stop-opacity:1"/></radialGradient>
        <radialGradient id="_Radial10" cx="0" cy="0" r="1" gradientUnits="userSpaceOnUse" gradientTransform="matrix(168.679,0,0,74.717,602.434,264.906)"><stop offset="0" style="stop-color:rgb(0,115,212);stop-opacity:1"/><stop offset="0.18" style="stop-color:rgb(6,81,231);stop-opacity:1"/><stop offset="0.39" style="stop-color:rgb(11,50,248);stop-opacity:1"/><stop offset="1" style="stop-color:rgb(13,37,255);stop-opacity:1"/></radialGradient>
        <radialGradient id="_Radial11" cx="0" cy="0" r="1" gradientUnits="userSpaceOnUse" gradientTransform="matrix(168.679,0,0,74.717,602.434,264.906)"><stop offset="0" style="stop-color:rgb(0,115,212);stop-opacity:1"/><stop offset="0.18" style="stop-color:rgb(6,81,231);stop-opacity:1"/><stop offset="0.39" style="stop-color:rgb(11,50,248);stop-opacity:1"/><stop offset="1" style="stop-color:rgb(13,37,255);stop-opacity:1"/></radialGradient>
        <radialGradient id="_Radial12" cx="0" cy="0" r="1" gradientUnits="userSpaceOnUse" gradientTransform="matrix(168.679,0,0,74.717,602.434,264.906)"><stop offset="0" style="stop-color:rgb(0,115,212);stop-opacity:1"/><stop offset="0.18" style="stop-color:rgb(6,81,231);stop-opacity:1"/><stop offset="0.39" style="stop-color:rgb(11,50,248);stop-opacity:1"/><stop offset="1" style="stop-color:rgb(13,37,255);stop-opacity:1"/></radialGradient>
        <radialGradient id="_Radial13" cx="0" cy="0" r="1" gradientUnits="userSpaceOnUse" gradientTransform="matrix(168.679,0,0,74.717,602.434,264.906)"><stop offset="0" style="stop-color:rgb(0,115,212);stop-opacity:1"/><stop offset="0.18" style="stop-color:rgb(6,81,231);stop-opacity:1"/><stop offset="0.39" style="stop-color:rgb(11,50,248);stop-opacity:1"/><stop offset="1" style="stop-color:rgb(13,37,255);stop-opacity:1"/></radialGradient>
        <radialGradient id="_Radial14" cx="0" cy="0" r="1" gradientUnits="userSpaceOnUse" gradientTransform="matrix(168.679,0,0,74.717,602.434,264.906)"><stop offset="0" style="stop-color:rgb(0,115,212);stop-opacity:1"/><stop offset="0.18" style="stop-color:rgb(6,81,231);stop-opacity:1"/><stop offset="0.39" style="stop-color:rgb(11,50,248);stop-opacity:1"/><stop offset="1" style="stop-color:rgb(13,37,255);stop-opacity:1"/></radialGradient>
        <radialGradient id="_Radial15" cx="0" cy="0" r="1" gradientUnits="userSpaceOnUse" gradientTransform="matrix(168.679,0,0,74.717,602.434,264.906)"><stop offset="0" style="stop-color:rgb(0,115,212);stop-opacity:1"/><stop offset="0.18" style="stop-color:rgb(6,81,231);stop-opacity:1"/><stop offset="0.39" style="stop-color:rgb(11,50,248);stop-opacity:1"/><stop offset="1" style="stop-color:rgb(13,37,255);stop-opacity:1"/></radialGradient>
        <radialGradient id="_Radial16" cx="0" cy="0" r="1" gradientUnits="userSpaceOnUse" gradientTransform="matrix(168.679,0,0,74.717,602.434,264.906)"><stop offset="0" style="stop-color:rgb(0,115,212);stop-opacity:1"/><stop offset="0.18" style="stop-color:rgb(6,81,231);stop-opacity:1"/><stop offset="0.39" style="stop-color:rgb(11,50,248);stop-opacity:1"/><stop offset="1" style="stop-color:rgb(13,37,255);stop-opacity:1"/></radialGradient>
    </defs>
</svg>
